[b][color=navy][size=4][font="Comic Sans MS"]====================================================
            !TAIMOOR! HD RELEAESEES
====================================================



[img]http://img141.imageshack.us/img141/3807/coverska.jpg[/img]
WWE TLC-Tables, Ladders, and Chairs 2011 By !Taimoor!
Sunday, December 20th 2011 8pm EST
[img]http://img839.imageshack.us/img839/3343/25ic0hd1.png[/img]
Info

Title                                : WWE TLC 2011 By !Taimoor!
Format                               : AVI
Format/Info                          : Audio Video Interleave
Total size                           : 1407 MiB
Duration                             : 2h 49mn

Matches 

	Zack Ryder Vs. Dolph Ziggler
	Air Boom (Evan Bourne and Kofi Kingston) (c) Vs. Primo and Epico (WWE Tag Team Championship)
	Randy Orton Vs. Wade Barrett (Tables match)
        Beth Phoenix (c) Vs. Kelly Kelly (WWE Divas Championship)
	Triple H Vs. Kevin Nash (Sledgehammer Ladder match)
	Sheamus Vs. Jack Swagger 
	Big Show Vs. Mark Henry (c) (Chairs match for the World Heavyweight Championship) 
	Cody Rhodes (c) Vs. Booker T (WWE Intercontinental Championship)
        CM Punk (c) Vs. The Miz Vs. Alberto Del Rio (Triple Threat Tables, Ladders, and Chairs match for the WWE Championship)



Disk 1
Title		                 : WWE TLC 2011 CD1 2011 By !Taimoor!
Format                           : AVI
Format/Info                      : Audio Video Interleave
File size                        : 861 MiB
Duration                         : 1h 43mn
Overall bit rate                 : 1 163 Kbps

  [img]http://img694.imageshack.us/img694/241/windowsmediaplayerfile.png[/img]
ID                               : 0
Format                           : MPEG-4 Visual
Format profile                   : Advanced Simple@L5
Format settings, BVOP            : 2
Format settings, QPel            : No
Format settings, GMC             : No warppoints
Format settings, Matrix          : Default (H.263)
Codec ID                         : XVID
Codec ID/Hint                    : XviD
Duration                         : 1h 43mn
Bit rate                         : 1 023 Kbps
Width                            : 640 pixels
Height                           : 368 pixels
Display aspect ratio             : 16:9
Frame rate                       : 25.000 fps
Color space                      : YUV
Chroma subsampling               : 4:2:0
Bit depth                        : 8 bits
Scan type                        : Progressive
Compression mode                 : Lossy
Bits/(Pixel*Frame)               : 0.174
Stream size                      : 757 MiB (88%)
Writing library                  : XviD 1.1.2 (UTC 2006-11-01)
[img]http://img222.imageshack.us/img222/5307/2l3ravv.png[/img]
ID                               : 1
Format                           : MPEG Audio
Format version                   : Version 1
Format profile                   : Layer 3
Mode                             : Joint stereo
Mode extension                   : MS Stereo
Codec ID                         : 55
Codec ID/Hint                    : MP3
Duration                         : 1h 43mn
Bit rate mode                    : Constant
Bit rate                         : 128 Kbps
Channel(s)                       : 2 channels
Sampling rate                    : 44.1 KHz
Compression mode                 : Lossy
Stream size                      : 94.7 MiB (11%)
Alignment                        : Aligned on interleaves
Interleave, duration             : 26 ms (0.65 video frame)
Interleave, preload duration     : 809 ms







Disk 2
Title		                 : WWE TLC 2011 CD2 2011 By !Taimoor!

Format                           : AVI
Format/Info                      : Audio Video Interleave
File size                        : 546 MiB
Duration                         : 1h 5mn
Overall bit rate                 : 1 164 Kbps
  [img]http://img694.imageshack.us/img694/241/windowsmediaplayerfile.png[/img]
ID                               : 0
Format                           : MPEG-4 Visual
Format profile                   : Advanced Simple@L5
Format settings, BVOP            : 2
Format settings, QPel            : No
Format settings, GMC             : No warppoints
Format settings, Matrix          : Default (H.263)
Codec ID                         : XVID
Codec ID/Hint                    : XviD
Duration                         : 1h 5mn
Bit rate                         : 1 024 Kbps
Width                            : 640 pixels
Height                           : 368 pixels
Display aspect ratio             : 16:9
Frame rate                       : 25.000 fps
Color space                      : YUV
Chroma subsampling               : 4:2:0
Bit depth                        : 8 bits
Scan type                        : Progressive
Compression mode                 : Lossy
Bits/(Pixel*Frame)               : 0.174
Stream size                      : 514 MiB (88%)
Writing library                  : XviD 1.1.2 (UTC 2006-11-01)
[img]http://img222.imageshack.us/img222/5307/2l3ravv.png[/img]
ID                               : 1
Format                           : MPEG Audio
Format version                   : Version 1
Format profile                   : Layer 3
Mode                             : Joint stereo
Mode extension                   : MS Stereo
Codec ID                         : 55
Codec ID/Hint                    : MP3
Duration                         : 1h 5mn
Bit rate mode                    : Constant
Bit rate                         : 128 Kbps
Channel(s)                       : 2 channels
Sampling rate                    : 44.1 KHz
Compression mode                 : Lossy
Delay relative to video          : 40ms
Stream size                      : 64.2 MiB (11%)
Alignment                        : Aligned on interleaves
Interleave, duration             : 26 ms (0.65 video frame)
Interleave, preload duration     : 809 ms[/font][/size][/color][/b]


[color=red][size=7][font=Impact][b]Join us on Facebook[/b][/font][/size][/color]
